HIERARCHY
ROOT Hips
{
 OFFSET 0.000000 0.000000 0.000000
 CHANNELS 6 Xposition Yposition Zposition Zrotation Xrotation Yrotation
 JOINT Chest
 {
  OFFSET 0.000000 4.000000 0.000000
  CHANNELS 3 Zrotation Xrotation Yrotation
  JOINT Head
  {
   OFFSET 0.000000 24.803150 0.000000
   CHANNELS 3 Zrotation Xrotation Yrotation
   End Site
   {
    OFFSET 0.000000 9.448819 0.000000
   }
  }
  JOINT LeftUpArm
  {
   OFFSET 7.086614 23.228346 0.000000
   CHANNELS 3 Zrotation Xrotation Yrotation
   JOINT LeftLowArm
   {
    OFFSET 0.000000 -11.811024 0.000000
    CHANNELS 3 Zrotation Xrotation Yrotation
    End Site
    {
     OFFSET 0.000000 -11.811024 0.000000
    }
   }
  }
  JOINT RightUpArm
  {
   OFFSET -7.086614 23.228346 0.000000
   CHANNELS 3 Zrotation Xrotation Yrotation
   JOINT RightLowArm
   {
    OFFSET 0.000000 -11.811024 0.000000
    CHANNELS 3 Zrotation Xrotation Yrotation
    End Site
    {
     OFFSET 0.000000 -11.811024 0.000000
    }
   }
  }
 }
 JOINT LeftUpLeg
 {
  OFFSET 3.937008 0.000000 0.000000
  CHANNELS 3 Zrotation Xrotation Yrotation
  JOINT LeftLowLeg
  {
   OFFSET 0.000000 -16.929134 0.000000
   CHANNELS 3 Zrotation Xrotation Yrotation
   End Site
   {
    OFFSET 0.000000 -19.685040 0.000000
   }
  }
 }
 JOINT RightUpLeg
 {
  OFFSET -3.937008 0.000000 0.000000
  CHANNELS 3 Zrotation Xrotation Yrotation
  JOINT RightLowLeg
  {
   OFFSET 0.000000 -16.929134 0.000000
   CHANNELS 3 Zrotation Xrotation Yrotation
   End Site
   {
    OFFSET 0.000000 -19.685040 0.000000
   }
  }
 }
}
MOTION
Frames: 31      
Frame Time: 0.033333
-65.427780 1.502976 48.780785 -1.012133 -3.311577 -101.381500 -2.741868 1.803681 -1.470180 0.876292 6.621008 -10.777423 7.339272 -0.323173 -1.206303 -0.037011 1.313146 -16.842224 -3.734692 -10.375415 6.707666 4.880743 -23.505047 8.000312 0.352838 -12.105475 -1.742649 -5.517143 2.821070 8.818787 3.556197 -16.916855 -12.389876 -57.958538 61.006725 50.597252
-66.974701 1.239296 48.429211 0.130108 -2.881304 -102.144638 -1.264150 1.569411 -1.991243 0.410012 5.849384 -6.153852 9.077524 -3.737425 -3.295170 -0.743429 -2.958800 -16.038872 -4.424537 -8.028021 3.452922 5.516919 -22.167580 11.953140 0.284716 -8.940687 0.000091 -5.497844 1.262445 8.007100 -0.301258 -21.407988 -6.096719 -54.754253 68.526321 49.885700
-67.915161 1.335978 48.191902 0.369465 -2.731286 -102.188858 -0.768984 1.654246 -2.327241 0.231834 6.332414 -4.733515 10.010978 -5.819646 -3.852882 -0.801238 -4.199017 -15.943810 -4.282664 -6.693429 1.537438 4.848057 -19.124130 12.527804 -0.103560 -7.385775 0.367283 -5.356947 0.919217 7.422453 0.998318 -25.236916 -3.930652 -57.001694 70.594971 51.247559
-69.602707 1.766655 48.297371 0.525359 -2.784483 -102.169388 -0.323480 1.916832 -2.787686 -0.312059 6.178042 -3.446126 11.262437 -9.498943 -4.041614 -0.925128 -4.911009 -15.674152 -3.828176 -4.775042 -1.666493 3.848794 -13.786972 11.726245 -0.809535 -4.825474 1.363683 -5.209716 0.916809 6.158378 3.132011 -29.669781 -0.669645 -53.677853 71.647591 47.557709
-70.929901 2.232490 47.954590 0.707353 -2.762266 -101.014236 0.291083 2.240921 -4.152148 -0.838767 6.380840 -2.370575 11.844790 -13.919866 -4.184060 -0.120067 -4.553332 -15.227716 -3.669753 -3.259128 -4.937815 2.277242 -7.789554 9.763807 -1.358881 -2.983235 1.215214 -4.878355 2.487710 5.714198 4.643208 -34.045200 2.495420 -39.176064 71.722603 34.654850
-72.714134 2.724693 48.438000 0.872805 -2.753002 -99.986366 0.907078 2.771706 -4.793807 -1.207187 5.765921 -2.388930 12.152629 -18.145609 -4.601744 0.331630 -3.753420 -14.961092 -3.845376 -1.213828 -8.715958 2.658732 -0.791236 9.146409 -1.929965 -1.590338 0.760039 -4.399580 3.846558 4.896473 5.512658 -36.617218 4.619667 -22.745398 67.528702 20.352949
-74.243477 2.408277 48.385265 1.289939 -2.312777 -98.523666 2.017102 3.173164 -5.628471 -1.191237 5.081874 -2.428399 11.921395 -22.532614 -5.827439 1.125190 -3.480392 -14.591992 -4.615482 0.636053 -12.715768 4.406712 6.031428 9.465027 -2.347384 0.402724 0.774404 -3.636874 3.750206 3.438306 6.278906 -37.972721 6.922221 -5.790530 58.988655 6.815773
-75.948608 2.197333 48.517105 2.138412 -2.164824 -97.025726 2.805944 3.222129 -6.225427 -0.893672 3.750251 -2.847768 11.610050 -25.383156 -7.638085 1.359663 -4.200310 -13.953104 -5.579216 2.911927 -15.753569 -1.963794 14.347316 12.985499 -2.592532 1.895397 0.306414 -3.522885 4.032524 2.186204 6.282785 -38.440750 6.962968 -0.833194 48.416817 5.543453
-77.724052 1.880917 48.455582 2.676756 -2.183400 -94.934647 3.358999 3.522973 -7.210724 -0.091118 2.138015 -3.705941 11.034563 -28.175797 -9.391923 1.631835 -6.873563 -13.958967 -6.476221 6.370811 -19.165195 -3.976557 12.262749 15.402508 -2.813351 4.257444 0.012090 -3.161127 4.309300 0.467615 5.805868 -36.511478 5.635993 0.325391 31.714354 4.979763
-79.165504 1.617237 48.376476 2.933049 -2.261856 -92.552574 3.691975 3.571000 -8.288483 0.540045 0.774166 -4.827517 10.438003 -29.479845 -10.991693 1.569958 -9.298965 -14.017226 -7.265291 9.951254 -21.256815 -6.693556 12.731666 17.950037 -3.013973 6.716563 -0.219323 -2.780179 5.769560 -1.725202 5.133135 -33.997581 3.153735 -1.814582 20.013556 3.680340
-80.545425 1.582080 48.394054 3.047816 -2.352960 -91.635986 3.742608 3.598078 -8.511644 0.968157 -0.003693 -5.430577 10.109239 -29.923223 -11.332393 1.385184 -11.426420 -14.434175 -7.535152 12.591032 -22.449751 -7.455287 12.638962 20.052181 -3.109371 8.536021 0.237023 -2.130032 6.419383 -3.218364 4.635019 -32.621674 2.246850 -2.457117 13.614937 2.768620
-82.479080 1.327189 48.332531 2.860770 -2.278686 -90.231102 4.024882 3.273400 -8.672464 1.403126 -0.437341 -6.252390 9.261500 -29.067228 -10.880368 0.641866 -14.880833 -14.971921 -7.220943 16.738420 -23.461044 -8.276966 12.491620 21.361797 -3.412961 11.768506 1.639433 -0.639022 7.840499 -5.771080 4.682113 -29.314209 0.619570 -0.767631 8.747455 2.759429
-84.351204 1.133824 47.972168 2.719837 -1.903925 -90.477203 4.696853 3.053562 -8.006587 1.344784 -0.718322 -6.560634 8.563410 -27.430969 -8.406424 -0.616098 -16.401712 -16.466743 -7.765303 18.288223 -22.855518 -8.605101 13.249660 21.489429 -2.772071 12.512416 3.706658 0.929733 12.116735 -7.659101 5.438442 -27.614296 2.148101 -0.109729 8.472322 1.690157
-86.443069 1.573290 48.104008 3.117629 -1.637803 -91.575775 5.286530 2.626532 -7.326050 1.754389 -0.660788 -6.392700 6.419573 -23.577875 -5.202993 -1.365679 -16.793564 -15.847721 -8.256690 17.561642 -19.171272 -8.965330 14.665311 20.080818 -1.638283 10.022762 6.319249 3.056004 20.519997 -10.729872 5.109200 -26.267765 5.291432 1.827555 10.394551 1.264537
-87.902100 2.074282 47.980957 3.629308 -1.587483 -92.332024 5.637697 2.426715 -6.768950 1.862288 -1.120521 -6.254737 4.900732 -20.755051 -3.515324 -1.960674 -16.251307 -15.710917 -8.637561 15.547992 -15.815125 -8.806047 15.398902 18.915567 -0.774973 6.743034 7.414052 6.191112 28.811398 -15.081455 5.368514 -25.102062 5.491104 1.207624 11.626286 2.913564
-88.816185 2.311594 48.042480 3.933072 -1.515344 -92.919495 5.637074 2.369422 -6.519113 2.393909 -1.172886 -6.144567 4.182570 -18.932476 -2.627954 -2.472055 -15.048563 -15.648733 -8.522703 13.948751 -13.123324 -8.182733 15.328343 17.994282 -0.013478 4.278787 7.642296 6.971339 33.759098 -16.258904 5.646858 -24.182154 7.396959 1.095849 11.424800 1.940495
-90.793785 3.172948 47.893063 5.350005 -1.621216 -93.426414 5.484221 2.090712 -5.962103 3.336572 -1.677214 -5.978363 3.057283 -15.781957 -2.306264 -2.566638 -11.417750 -17.206968 -8.220643 9.424449 -5.903501 -3.642252 12.731223 14.980139 1.449534 -5.205083 7.139301 12.186019 50.757183 -22.614367 4.808625 -22.568708 6.691954 1.440699 10.676470 2.265594
-91.663933 3.339946 47.770012 5.853798 -1.643694 -93.148781 5.154152 2.027472 -5.996504 3.790357 -1.720847 -5.737164 3.211046 -14.632980 -2.654255 -2.427943 -9.420467 -18.755880 -7.890759 7.345421 -2.366046 -0.335948 10.335897 12.770392 1.363156 -9.774990 5.894203 14.459575 58.004692 -25.277355 4.544982 -21.565809 5.868829 1.397485 10.216437 2.545128
-93.606369 3.621204 47.312965 6.368615 -1.708400 -93.080368 4.464530 2.030838 -5.419128 3.946215 -1.234564 -4.507225 4.049194 -12.123448 -2.769280 -1.967901 -5.105977 -22.463299 -7.971372 2.773209 4.776531 5.293582 1.617137 11.571177 2.107522 -19.454964 3.202333 16.856861 71.251312 -27.160969 4.375371 -18.187130 5.490723 1.419410 8.449897 2.301029
-94.485306 3.629994 47.145969 6.241997 -1.669356 -92.763428 4.317634 2.257004 -5.325981 3.713913 -0.792645 -3.959542 4.156367 -10.840049 -2.457699 -1.390288 -3.165998 -23.778847 -8.138374 0.308396 8.133076 4.873193 -1.601555 9.660900 2.811174 -23.566856 1.762000 15.012838 75.294319 -25.360411 4.025766 -16.178968 5.336746 2.003099 7.747666 1.633831
-96.427750 3.647572 46.970184 5.774200 -1.602619 -92.653778 4.034985 2.742945 -4.629591 2.849884 0.293764 -2.680117 3.936172 -8.414446 -1.057160 0.629898 1.009811 -24.577606 -7.950176 -5.625128 13.477483 2.470137 -5.963104 3.919076 4.932692 -31.321867 0.534015 7.472608 79.196526 -17.935480 3.739213 -11.835139 4.867990 2.270942 6.667952 1.281799
-97.438522 3.638783 46.855923 5.477833 -1.502299 -92.422432 3.747134 2.979254 -4.283356 2.599127 1.115530 -2.191114 3.966286 -7.268713 -0.186299 1.813094 2.782864 -24.063837 -7.237629 -8.951938 15.477420 1.321743 -6.979870 2.200299 5.494725 -34.622215 -0.313757 -0.933092 78.246223 -9.090889 3.810902 -9.572598 4.289870 2.335679 6.130911 1.026299
-98.730553 3.700308 46.803185 5.274756 -1.586563 -92.530312 3.141929 3.132728 -3.500030 2.385591 1.658613 -1.674654 4.211111 -5.982560 0.917861 2.793338 3.868149 -23.278246 -6.364099 -12.400894 17.148851 0.421727 -7.517636 0.764078 5.808609 -37.664482 -0.653777 -7.133544 74.965012 -1.935617 3.685979 -7.742774 4.060857 2.246916 6.482417 1.251644
-100.664207 3.383892 46.768028 5.044796 -1.377563 -92.158569 2.029903 3.170258 -2.332194 2.625645 2.695408 -1.309757 5.990081 -3.653671 2.111887 2.983302 4.037481 -22.641449 -4.820851 -17.382202 19.729715 -0.873547 -9.022106 -1.476277 5.120463 -40.820217 -1.385517 -10.757108 63.348625 3.951619 4.119714 -4.639929 3.076482 1.738865 6.779085 1.929097
-102.000183 3.339946 46.794395 5.177644 -1.552392 -92.132095 1.168322 3.152018 -1.443581 2.578273 2.675714 -1.148573 7.138651 -2.629694 2.610888 2.681672 3.786566 -22.194952 -4.339896 -19.854612 20.818810 -1.150962 -9.985237 -2.209746 4.538309 -41.642822 -1.851810 -10.337518 54.607864 5.251797 4.267045 -3.521950 2.589673 1.294354 7.983227 2.411092
-104.232674 3.120212 46.935024 5.052374 -1.854037 -91.929993 -0.407908 3.185665 -0.176819 2.589149 2.703046 -0.815591 9.003094 -0.390528 3.498706 2.018659 2.234399 -22.129484 -3.987553 -22.775156 22.986727 -1.382261 -13.182708 -3.039452 3.473969 -41.092236 -4.235578 -8.940707 37.341465 6.929285 4.675670 -0.692982 1.007865 0.077586 9.622820 4.320192
-105.577438 2.935637 47.093235 4.744339 -2.071292 -92.157318 -1.186306 3.250988 0.772696 2.076132 2.710764 -0.764780 9.616557 0.710264 4.085726 1.953295 1.486349 -22.284348 -4.231158 -23.688072 23.870201 -1.372112 -15.184181 -3.072340 3.287659 -40.335857 -5.523716 -7.034724 30.048204 7.148620 4.767848 1.434324 -0.095056 -0.929847 10.713863 5.675701
-106.931000 2.777429 47.242653 4.408316 -2.413456 -92.570122 -2.107690 3.136026 1.808841 1.862123 3.058461 -0.502962 10.468524 2.033095 4.514897 1.528073 0.768266 -22.093893 -4.509962 -24.215130 24.469557 -1.321630 -17.302378 -2.760404 3.380490 -39.042427 -5.894625 -4.619146 23.915276 7.784398 4.504476 3.375831 -1.142806 -1.688574 11.594500 7.119217
-109.629326 2.346751 47.603016 3.091646 -3.156440 -94.113815 -3.671772 2.966251 4.040839 0.920159 4.136355 0.127285 11.336310 4.465660 6.514217 0.978880 0.169998 -22.050089 -5.399966 -24.365236 24.427128 -0.771052 -21.426104 -0.889306 3.034803 -33.927433 -4.684336 -2.327939 12.860375 7.939535 3.153657 7.416279 -3.591179 -3.261876 14.527567 10.011806
-111.202614 2.170965 47.743645 2.048070 -3.663536 -94.861580 -4.606150 3.115541 5.097261 0.631882 4.908210 0.431628 11.649451 5.596631 7.631790 0.709746 0.513724 -21.695751 -5.760906 -23.937632 23.355619 -0.235710 -23.164682 0.599620 1.833459 -30.221415 -3.830783 -2.503596 8.915752 6.732615 1.954999 9.118730 -5.044438 -4.374449 17.791042 10.570224
-113.936096 2.188543 47.919430 0.090189 -4.411457 -95.477013 -5.883090 3.642598 5.696397 0.313719 6.314654 1.019382 11.373485 6.040611 8.869893 0.901596 2.907128 -20.335434 -6.073513 -21.691177 20.043774 1.174014 -25.133108 3.587490 -0.718917 -22.027132 -3.220574 -1.971456 4.843315 5.849113 0.012955 9.353379 -7.556078 -7.651126 27.491980 12.183194
